<?xml version="1.0" standalone="no"?>
<!DOCTYPE svg PUBLIC "-//W3C//DTD SVG 20010904//EN"
 "http://www.w3.org/TR/2001/REC-SVG-20010904/DTD/svg10.dtd">
<svg version="1.0" xmlns="http://www.w3.org/2000/svg"
 width="405.000000pt" height="406.000000pt" viewBox="0 0 405.000000 406.000000"
 preserveAspectRatio="xMidYMid meet">
<metadata>
Created by potrace 1.16, written by Peter Selinger 2001-2019
</metadata>
<g transform="translate(0.000000,406.000000) scale(0.100000,-0.100000)"
fill="#000000" stroke="none">
<path d="M1857 4049 c-35 -21 -47 -72 -47 -202 0 -118 -1 -126 -24 -148 -14
-14 -62 -36 -116 -53 -50 -17 -141 -54 -202 -83 -61 -29 -117 -53 -125 -53 -8
0 -61 45 -118 100 -102 98 -106 100 -152 100 l-47 0 -200 -200 -201 -200 0
-49 c0 -49 1 -50 98 -149 63 -64 97 -107 97 -121 0 -12 -22 -68 -49 -124 -27
-56 -62 -138 -76 -182 -15 -44 -32 -93 -37 -108 -18 -46 -53 -57 -187 -57
-206 0 -201 9 -201 -348 0 -168 4 -271 11 -292 17 -49 56 -60 203 -60 103 0
127 -3 145 -17 13 -11 35 -59 55 -118 43 -126 101 -255 116 -255 22 0 350 294
350 314 0 11 -11 52 -25 91 -63 183 -71 406 -21 600 31 119 114 292 185 386
113 148 294 289 456 355 163 67 221 78 415 78 161 1 183 -2 273 -26 488 -136
816 -560 817 -1056 0 -292 -105 -550 -313 -761 -295 -301 -723 -407 -1115
-275 -41 14 -83 24 -92 22 -18 -3 -310 -331 -310 -348 0 -15 129 -73 255 -116
59 -20 107 -42 118 -55 14 -18 17 -42 17 -145 0 -154 11 -188 67 -204 25 -8
129 -10 311 -8 l274 3 24 28 c23 27 24 35 24 162 0 133 0 135 28 164 19 20 59
39 135 65 60 20 149 57 198 81 49 25 98 45 110 45 14 0 57 -34 120 -96 90 -89
101 -97 144 -102 l47 -5 204 204 204 205 0 47 c0 46 -2 50 -100 152 -55 57
-100 110 -100 119 0 8 25 66 55 128 31 62 67 151 82 198 15 48 37 97 51 112
24 26 27 27 169 30 145 3 145 3 169 31 l24 28 0 290 0 291 -29 29 -29 29 -135
0 c-171 0 -171 0 -222 147 -20 59 -59 154 -87 210 -37 76 -48 107 -42 125 4
12 49 66 100 120 92 94 94 97 94 143 l0 48 -182 184 c-101 102 -195 191 -210
199 -15 8 -43 14 -63 14 -33 0 -48 -10 -134 -94 -54 -52 -109 -98 -123 -101
-18 -5 -51 7 -126 44 -55 28 -147 67 -204 86 -146 49 -148 51 -148 221 l0 136
-29 29 -29 29 -289 0 c-186 -1 -295 -4 -306 -11z"/>
<path d="M2072 2799 c-235 -31 -431 -189 -509 -409 -34 -95 -43 -270 -20 -368
l15 -63 -222 -193 c-121 -107 -421 -368 -666 -581 -623 -542 -593 -514 -632
-593 -32 -64 -33 -71 -33 -187 0 -112 2 -124 28 -178 77 -155 253 -246 425
-218 73 12 153 46 200 86 18 15 259 287 535 604 275 317 559 642 629 723 l128
146 52 -14 c71 -18 248 -18 323 1 174 44 328 169 403 326 22 46 46 109 53 139
28 119 8 360 -30 360 -9 0 -97 -81 -196 -181 -99 -99 -192 -187 -207 -195 -17
-8 -35 -11 -48 -6 -26 10 -300 280 -310 307 -4 11 -3 31 2 45 4 14 92 109 193
210 102 102 185 192 185 201 0 30 -184 54 -298 38z m-1567 -2168 c194 -88 169
-356 -38 -412 -137 -37 -295 122 -257 260 35 130 180 205 295 152z"/>
</g>
</svg>
