<?xml version="1.0" standalone="no"?>
<!DOCTYPE svg PUBLIC "-//W3C//DTD SVG 20010904//EN"
 "http://www.w3.org/TR/2001/REC-SVG-20010904/DTD/svg10.dtd">
<svg version="1.0" xmlns="http://www.w3.org/2000/svg"
 width="310.000000pt" height="310.000000pt" viewBox="0 0 310.000000 310.000000"
 preserveAspectRatio="xMidYMid meet">
<metadata>
Created by potrace 1.14, written by Peter Selinger 2001-2017
</metadata>
<g transform="translate(0.000000,310.000000) scale(0.100000,-0.100000)"
fill="#000000" stroke="none">
<path d="M2172 2638 c-17 -21 -242 -429 -242 -439 0 -5 81 -9 186 -9 174 0
189 -1 226 -22 22 -13 51 -41 64 -64 l24 -41 0 -497 c0 -424 -2 -502 -15 -533
-20 -48 -41 -71 -87 -94 -35 -18 -68 -19 -613 -19 -316 0 -575 -3 -575 -7 0
-4 10 -17 21 -29 l22 -23 -106 -188 c-58 -103 -109 -195 -112 -204 -6 -15 48
-17 588 -24 327 -4 603 -4 614 -1 10 3 41 47 69 98 28 51 150 271 271 488 121
217 235 425 253 461 l33 66 -125 224 c-69 123 -142 256 -163 294 -21 39 -53
95 -71 125 -17 30 -80 143 -139 250 -59 107 -108 196 -110 198 -1 1 -7 -3 -13
-10z"/>
<path d="M841 2054 c-21 -26 -21 -36 -21 -499 0 -463 0 -473 21 -499 l20 -26
712 2 c392 1 661 4 600 5 -108 4 -114 5 -129 29 -13 19 -15 32 -7 57 l9 32
139 0 140 0 -3 440 c-2 434 -3 439 -24 462 l-21 23 -708 0 -708 0 -20 -26z
m424 -176 c60 -27 79 -125 51 -259 -18 -82 -51 -148 -110 -222 l-46 -56 32 -6
c18 -3 60 -6 93 -8 54 -2 60 -4 63 -25 7 -46 -11 -52 -144 -52 -111 0 -126 2
-144 20 -11 11 -20 28 -20 38 0 22 45 87 102 150 53 57 85 131 98 221 8 56 7
79 -3 99 -12 25 -17 27 -75 27 -51 0 -65 4 -73 18 -17 29 -4 45 43 55 61 14
103 14 133 0z m456 -15 c10 -11 2 -39 -40 -141 l-52 -128 50 -106 c28 -58 59
-129 70 -157 l20 -50 -22 -16 c-37 -26 -54 -19 -79 37 -13 29 -37 82 -54 117
l-30 65 -21 -35 c-12 -19 -31 -63 -43 -99 -27 -80 -35 -90 -71 -90 -24 0 -29
4 -29 25 0 34 32 128 75 218 l35 74 -35 84 c-20 46 -45 98 -56 115 -24 40 -24
56 2 80 29 26 44 13 94 -80 l43 -78 21 57 c26 69 50 118 64 126 13 9 44 0 58
-18z m337 -1 c5 -37 -15 -52 -70 -52 l-49 0 3 -52 c3 -50 4 -52 38 -61 78 -20
115 -86 125 -229 10 -139 -27 -200 -132 -219 -26 -5 -62 -6 -80 -3 -40 7 -86
48 -81 72 3 14 16 17 87 17 76 0 84 2 103 25 18 22 20 35 15 109 -7 114 -24
137 -119 156 -49 10 -59 39 -49 145 11 117 16 122 126 118 75 -3 80 -4 83 -26z"/>
</g>
</svg>
